<?xml version="1.0"?>
<svg xmlns="http://www.w3.org/2000/svg" width="475.001" height="98.535" viewBox="0 0 475.001 98.535">
  <g stroke="none" fill-rule="evenodd">
    <!-- W -->
    <path fill="#ea1a5b" d="M 4.053 18.701 L 16.748 18.359 A 3.08 3.08 0 0 1 16.789 18.359 Q 20.418 18.359 21.826 26.953 A 1426.321 1426.321 0 0 0 22.601 31.631 Q 23.865 39.185 25.732 49.951 Q 26.318 52.1 27.344 50.439 L 30.518 41.113 A 18.841 18.841 0 0 1 31.614 38.315 Q 32.297 36.94 33.134 35.996 A 5.708 5.708 0 0 1 37.207 33.936 Q 43.018 33.252 44.58 41.016 L 47.754 50.342 A 3.591 3.591 0 0 0 47.945 50.624 Q 48.789 51.736 49.309 50.047 A 6.2 6.2 0 0 0 49.365 49.854 A 4438.764 4438.764 0 0 0 50.543 43.033 Q 51.689 36.367 52.549 31.22 A 1406.149 1406.149 0 0 0 53.271 26.855 A 32.22 32.22 0 0 1 53.878 23.935 Q 55.36 18.261 58.309 18.261 A 3.08 3.08 0 0 1 58.35 18.262 L 70.996 18.604 A 3.992 3.992 0 0 1 73.001 19.146 Q 74.526 20.074 74.973 22.588 A 11.235 11.235 0 0 1 75.098 23.535 A 92.435 92.435 0 0 0 73.772 28.424 Q 70.724 40.757 65.316 70.923 A 2357.908 2357.908 0 0 0 64.893 73.291 A 36.333 36.333 0 0 1 63.621 78.125 Q 60.711 86.534 54.549 86.534 A 9.299 9.299 0 0 1 54.102 86.523 Q 46.533 86.475 43.311 79.199 A 98.785 98.785 0 0 1 40.093 70.89 A 132.026 132.026 0 0 1 37.598 62.598 A 136.018 136.018 0 0 1 34.888 71.454 A 101.239 101.239 0 0 1 31.836 79.272 A 14.111 14.111 0 0 1 29.393 83.127 Q 26.529 86.263 21.96 86.585 A 15.104 15.104 0 0 1 20.996 86.621 A 9.299 9.299 0 0 1 20.548 86.632 Q 12.816 86.632 10.205 73.389 Q 3.125 33.936 0 23.633 A 9.568 9.568 0 0 1 0.319 21.774 Q 1.177 18.778 4.053 18.701 Z"/>

    <!-- i -->
    <path fill="#f48120" d="M 91.211 86.572 L 87.109 86.377 A 8.772 8.772 0 0 1 83.775 85.724 Q 79.517 83.88 79.59 76.855 A 309.67 309.67 0 0 1 79.871 63.971 A 402.93 402.93 0 0 1 80.713 49.927 Q 81.836 35.303 87.012 35.84 A 10.399 10.399 0 0 1 88.721 35.574 Q 91.087 35.397 94.156 36.104 A 29.771 29.771 0 0 1 94.971 36.304 A 8.072 8.072 0 0 1 97.175 37.208 Q 99.756 38.794 99.756 42.236 A 1034.159 1034.159 0 0 0 99.727 50.012 A 999.846 999.846 0 0 0 100.195 80.762 A 8.577 8.577 0 0 1 98.319 84.067 Q 95.96 86.574 91.44 86.574 A 16.595 16.595 0 0 1 91.211 86.572 Z M 102.069 26.842 A 8.932 8.932 0 0 0 102.881 22.998 A 8.483 8.483 0 0 0 102.051 19.314 A 10.481 10.481 0 0 0 100.293 16.748 A 9.708 9.708 0 0 0 96.119 14.18 A 12.128 12.128 0 0 0 92.529 13.672 Q 88.037 13.672 85.303 16.455 A 8.829 8.829 0 0 0 83.235 19.217 A 8.889 8.889 0 0 0 82.422 23.047 A 8.764 8.764 0 0 0 84.961 29.346 A 9.284 9.284 0 0 0 89.431 31.854 A 13.374 13.374 0 0 0 92.676 32.227 A 13.444 13.444 0 0 0 94.23 32.139 A 10.231 10.231 0 0 0 99.609 29.932 A 8.868 8.868 0 0 0 102.069 26.842 Z"/>

    <!-- k -->
    <path fill="#73bd45" d="M 104.297 27.002 L 104.346 26.465 Q 104.893 20.987 114.189 20.46 A 35.021 35.021 0 0 1 115.527 20.41 Q 125.508 20.226 126.412 27.299 A 11.103 11.103 0 0 1 126.489 28.198 A 3196.361 3196.361 0 0 1 126.615 30.973 Q 126.865 36.511 126.904 37.939 A 42.347 42.347 0 0 0 126.875 39.313 Q 126.858 42.719 127.435 45.28 A 16.242 16.242 0 0 0 127.783 46.582 Q 130.615 43.506 134.155 37.207 A 117.357 117.357 0 0 1 141.772 25.342 Q 145.829 19.804 154.404 19.413 A 27.721 27.721 0 0 1 154.492 19.409 A 47.196 47.196 0 0 1 155.434 19.378 Q 163.159 19.206 163.574 21.948 A 2.936 2.936 0 0 1 163.605 22.375 Q 163.618 25.432 158.276 33.252 A 442.484 442.484 0 0 1 155.122 37.802 Q 151.576 42.856 146.815 49.404 A 1477.946 1477.946 0 0 1 142.236 55.664 A 832.271 832.271 0 0 0 153.561 68.312 A 726.897 726.897 0 0 0 157.227 72.29 A 73.992 73.992 0 0 1 159.715 75.099 Q 164.409 80.703 164.014 83.154 Q 163.542 86.079 155.641 85.973 A 44.759 44.759 0 0 1 155.078 85.962 A 36.428 36.428 0 0 1 151.176 85.666 Q 147.043 85.109 144.627 83.56 A 8.213 8.213 0 0 1 143.335 82.544 A 41.369 41.369 0 0 1 141.789 80.937 Q 138.087 76.917 129.45 66.405 A 1292.853 1292.853 0 0 1 127.93 64.551 Q 128.516 79.248 128.149 82.715 A 2.959 2.959 0 0 1 126.818 84.811 Q 124.809 86.277 119.804 86.792 A 44.157 44.157 0 0 1 118.726 86.89 A 48.245 48.245 0 0 1 117.247 86.983 Q 109.542 87.348 108.179 84.644 Q 106.689 81.689 107.178 72.485 Q 107.588 64.753 105.276 37.914 A 1647.692 1647.692 0 0 0 104.297 27.002 Z"/>

    <!-- i -->
    <path fill="#f48120" d="M 180.029 86.572 L 175.928 86.377 A 8.772 8.772 0 0 1 172.593 85.724 Q 168.335 83.88 168.408 76.855 A 309.67 309.67 0 0 1 168.689 63.971 A 402.93 402.93 0 0 1 169.531 49.927 Q 170.654 35.303 175.83 35.84 A 10.399 10.399 0 0 1 177.539 35.574 Q 179.905 35.397 182.974 36.104 A 29.771 29.771 0 0 1 183.789 36.304 A 8.072 8.072 0 0 1 185.994 37.208 Q 188.574 38.794 188.574 42.236 A 1034.159 1034.159 0 0 0 188.545 50.012 A 999.846 999.846 0 0 0 189.014 80.762 A 8.577 8.577 0 0 1 187.137 84.067 Q 184.778 86.574 180.258 86.574 A 16.595 16.595 0 0 1 180.029 86.572 Z M 190.888 26.842 A 8.932 8.932 0 0 0 191.699 22.998 A 8.483 8.483 0 0 0 190.869 19.314 A 10.481 10.481 0 0 0 189.111 16.748 A 9.708 9.708 0 0 0 184.937 14.18 A 12.128 12.128 0 0 0 181.348 13.672 Q 176.855 13.672 174.121 16.455 A 8.829 8.829 0 0 0 172.053 19.217 A 8.889 8.889 0 0 0 171.24 23.047 A 8.764 8.764 0 0 0 173.779 29.346 A 9.284 9.284 0 0 0 178.249 31.854 A 13.374 13.374 0 0 0 181.494 32.227 A 13.444 13.444 0 0 0 183.048 32.139 A 10.231 10.231 0 0 0 188.428 29.932 A 8.868 8.868 0 0 0 190.888 26.842 Z"/>

    <!-- n -->
    <path fill="#ea1a5b" d="M 213.477 86.914 L 200.391 86.914 Q 196.951 86.914 196.179 82.891 A 11.37 11.37 0 0 1 196.045 81.982 A 74.215 74.215 0 0 1 195.286 76.915 Q 193.793 64.585 192.463 34.54 A 2058.598 2058.598 0 0 1 192.236 29.248 Q 192.236 21.503 195.187 18.669 A 5.965 5.965 0 0 1 199.219 17.041 A 120.548 120.548 0 0 1 205.763 17.204 Q 218.689 17.911 220.752 21.68 Q 230.469 42.48 238.818 53.418 Q 241.236 55.111 241.164 51.583 A 10.678 10.678 0 0 0 241.162 51.514 Q 238.253 31.979 237.572 26.578 A 59.625 59.625 0 0 1 237.402 25.122 A 4.399 4.399 0 0 1 237.381 24.753 Q 237.337 21.79 241.71 21.684 A 13.646 13.646 0 0 1 242.041 21.68 Q 257.227 21.875 258.789 24.927 Q 260.352 27.979 262.988 60.693 Q 263.672 70.02 263.77 79.053 Q 263.866 87.989 253.64 87.989 A 23.789 23.789 0 0 1 253.418 87.988 A 81.154 81.154 0 0 1 248.898 87.83 Q 242.327 87.4 239.564 85.835 A 6.777 6.777 0 0 1 239.404 85.742 Q 233.691 80.713 226.562 69.189 Q 220.453 59.314 217.661 55.553 A 30.083 30.083 0 0 0 216.821 54.468 A 9.535 9.535 0 0 0 216.33 53.909 Q 214.152 51.632 213.623 54.98 Q 215.064 67.691 216.037 76.123 A 5380.919 5380.919 0 0 0 216.26 78.052 Q 217.034 84.742 215.053 86.382 A 2.39 2.39 0 0 1 213.477 86.914 Z"/>

    <!-- d -->
    <path fill="#f48120" d="M 305.664 21.094 L 306.494 21.338 A 48.484 48.484 0 0 1 313.123 23.695 Q 316.513 25.204 319.173 27.135 A 26.46 26.46 0 0 1 321.143 28.711 Q 330.737 38.492 328.982 53.366 A 43.214 43.214 0 0 1 328.809 54.663 Q 327.105 66.112 321.981 73.251 A 27.089 27.089 0 0 1 317.651 78.003 Q 308.838 85.596 295.19 85.181 A 211.843 211.843 0 0 1 288.855 84.9 Q 282.782 84.532 278.816 83.849 A 33.909 33.909 0 0 1 275.708 83.179 A 40.67 40.67 0 0 1 273.367 82.472 Q 269.563 81.186 268.457 79.736 A 4.232 4.232 0 0 1 267.876 78.562 Q 266.986 75.989 266.797 69.531 A 244.004 244.004 0 0 1 266.756 65.087 Q 266.756 51.608 268.278 39.305 A 173.325 173.325 0 0 1 270.654 24.951 A 5.467 5.467 0 0 1 273.387 21.226 A 8.125 8.125 0 0 1 274.219 20.801 A 72.425 72.425 0 0 1 286.025 19.082 Q 287.95 18.967 289.847 18.967 A 58.75 58.75 0 0 1 305.664 21.094 Z M 291.43 37.242 A 0.919 0.919 0 0 0 291.113 37.451 Q 290.602 38.005 289.329 48.649 A 634.746 634.746 0 0 0 288.94 51.978 A 401.925 401.925 0 0 0 288.583 55.218 Q 287.508 65.357 288.096 65.845 A 0.098 0.098 0 0 0 288.159 65.869 A 4.811 4.811 0 0 1 288.568 65.892 Q 289.684 65.993 292.798 66.528 A 16.992 16.992 0 0 0 295.683 66.776 A 17.862 17.862 0 0 0 300.537 66.089 A 7.027 7.027 0 0 0 303.897 63.913 Q 304.777 62.929 305.504 61.547 A 18.847 18.847 0 0 0 306.543 59.155 A 28.72 28.72 0 0 0 307.939 53.736 Q 308.389 50.769 308.105 47.925 Q 307.647 43.322 305.857 41.224 A 5.285 5.285 0 0 0 305.2 40.576 A 15.231 15.231 0 0 0 303.119 39.12 Q 301.78 38.348 300.426 37.991 A 9.588 9.588 0 0 0 300.415 37.988 A 27.598 27.598 0 0 0 297.902 37.459 Q 296.651 37.253 295.252 37.121 A 45.794 45.794 0 0 0 294.849 37.085 Q 292.3 36.868 291.43 37.242 Z"/>

    <!-- e -->
    <path fill="#73bd45" d="M 333.008 28.076 L 333.057 27.539 A 4.815 4.815 0 0 1 335.712 24.121 Q 342.634 19.839 367.497 18.446 A 359.634 359.634 0 0 1 373.438 18.164 A 12.228 12.228 0 0 1 375.858 18.432 Q 380.308 19.431 379.929 24.111 A 10.38 10.38 0 0 1 379.883 24.561 L 379.102 33.838 A 3.052 3.052 0 0 1 377.305 36.295 Q 374.716 37.662 368.434 37.21 A 56.657 56.657 0 0 1 366.968 37.085 A 135.221 135.221 0 0 0 364.772 36.887 Q 355.665 36.143 355.29 37.569 A 0.495 0.495 0 0 0 355.273 37.695 Q 354.974 42.436 355.722 45.683 A 15.149 15.149 0 0 0 355.957 46.582 A 407.96 407.96 0 0 1 361.795 46.397 Q 365.345 46.312 368.376 46.312 A 206.597 206.597 0 0 1 369.263 46.313 A 6.422 6.422 0 0 1 371.425 46.656 Q 374.803 47.879 374.268 53.467 L 374.121 54.785 A 12.842 12.842 0 0 1 373.589 57.43 Q 372.333 61.287 368.602 61.669 A 7.859 7.859 0 0 1 368.286 61.694 A 806.674 806.674 0 0 1 365.556 61.858 Q 361.299 62.105 355.699 62.393 A 2179.468 2179.468 0 0 1 355.518 62.402 A 67.5 67.5 0 0 0 355.332 64.925 Q 355.206 67.175 355.176 69.922 Q 362.744 68.994 373.389 68.604 Q 380.029 68.75 379.297 74.512 L 378.613 83.105 A 2.377 2.377 0 0 1 377.216 84.817 Q 373.155 87.123 357.373 87.012 Q 337.449 86.871 335.333 82.767 A 2.291 2.291 0 0 1 335.181 82.397 A 18.134 18.134 0 0 1 334.572 79.659 Q 334.139 76.729 334.346 72.832 A 58.576 58.576 0 0 1 334.546 70.215 Q 335.201 63.541 333.572 36.88 A 1595.241 1595.241 0 0 0 333.008 28.076 Z"/>

    <!-- R -->
    <path fill="#0862ad" d="M 427.783 0 L 429.492 0 A 77.67 77.67 0 0 1 453.475 3.959 A 106.013 106.013 0 0 1 470.459 11.23 A 11.358 11.358 0 0 1 472.95 13.321 A 8.127 8.127 0 0 1 475 18.848 L 475 19.189 Q 475 39.289 471.394 64.221 A 464.32 464.32 0 0 1 470.117 72.51 A 199.582 199.582 0 0 1 468.476 79.852 Q 466.806 86.674 465.065 91.172 A 45.661 45.661 0 0 1 464.453 92.676 Q 462.598 94.727 459.229 94.727 A 380.926 380.926 0 0 1 453.683 95.325 Q 445.984 96.094 441.992 96.094 Q 437.63 96.094 436.979 92.63 A 7.164 7.164 0 0 1 436.865 91.309 Q 438.478 75.825 438.569 73.345 A 7.005 7.005 0 0 0 438.574 73.096 L 438.574 72.607 A 17.205 17.205 0 0 0 438.461 70.548 Q 438.202 68.408 437.35 67.246 A 3.356 3.356 0 0 0 436.475 66.406 Q 436.035 66.162 435.498 66.162 L 435.254 66.162 A 3.18 3.18 0 0 0 433.49 66.788 Q 431.493 68.137 429.083 72.392 A 51.873 51.873 0 0 0 428.174 74.072 A 223.988 223.988 0 0 1 422.811 82.386 Q 411.832 98.535 406.396 98.535 L 406.299 98.535 A 12.19 12.19 0 0 1 402.119 97.72 Q 397.716 96.107 392.236 91.309 Q 385.254 84.961 385.254 82.91 L 385.254 82.275 A 1.659 1.659 0 0 1 385.553 81.449 Q 386.544 79.845 390.816 76.677 A 87.524 87.524 0 0 1 391.504 76.172 A 81.406 81.406 0 0 0 395.027 72.495 Q 398.398 68.733 400.173 65.596 A 23.575 23.575 0 0 0 400.293 65.381 Q 404.762 57.932 404.833 55.923 A 1.798 1.798 0 0 0 404.834 55.859 Q 404.786 55.004 401.777 53.037 A 38.734 38.734 0 0 0 401.611 52.93 A 36.349 36.349 0 0 1 395.495 46.224 A 24.867 24.867 0 0 1 390.869 31.787 L 390.869 30.566 A 27.635 27.635 0 0 1 397.813 12.256 A 40.158 40.158 0 0 1 402.246 7.813 A 34.603 34.603 0 0 1 415.984 1.289 Q 421.058 0.081 426.989 0.005 A 62.389 62.389 0 0 1 427.783 0 Z M 428.174 23.34 L 427.539 23.486 Q 419.041 23.349 416.613 23.34 A 84.525 84.525 0 0 0 416.309 23.34 Q 415.658 23.47 415.296 23.726 A 0.979 0.979 0 0 0 414.844 24.561 L 414.844 24.951 A 1.59 1.59 0 0 0 415.057 25.543 Q 415.999 27.388 421.111 33.959 A 369.374 369.374 0 0 0 421.436 34.375 A 8.539 8.539 0 0 1 421.65 35.043 Q 421.738 35.366 421.782 35.651 A 3.48 3.48 0 0 1 421.826 36.182 L 421.826 36.426 Q 421.826 37.744 418.018 47.412 L 417.871 48.047 A 1.391 1.391 0 0 0 417.966 48.581 Q 418.215 49.183 419.119 49.257 A 3.265 3.265 0 0 0 419.385 49.268 A 2.961 2.961 0 0 0 420.034 49.141 Q 422.149 48.568 430.072 45.383 A 548.487 548.487 0 0 0 430.127 45.361 A 3.383 3.383 0 0 1 431.104 45.215 A 2.95 2.95 0 0 1 432.24 45.484 Q 434.064 46.26 436.963 49.268 A 61.355 61.355 0 0 0 438.345 50.479 Q 441.029 52.755 441.933 52.83 A 0.721 0.721 0 0 0 441.992 52.832 L 442.48 52.832 Q 443.397 52.832 443.532 47.036 A 93.727 93.727 0 0 0 443.555 44.873 A 53.301 53.301 0 0 1 443.621 43.213 Q 443.854 39.111 444.678 39.111 A 5.834 5.834 0 0 1 445.272 38.575 Q 447.055 37.122 453.125 33.154 Q 454.59 31.982 454.59 31.152 A 1.201 1.201 0 0 0 454.178 30.317 Q 453.332 29.465 450.744 28.644 A 34.964 34.964 0 0 0 448.926 28.125 A 106.04 106.04 0 0 1 446.68 27.294 Q 442.264 25.598 441.748 24.805 A 24.98 24.98 0 0 1 441.322 23.77 Q 440.307 21.17 438.247 14.897 A 589.34 589.34 0 0 1 438.086 14.404 Q 437.451 13.574 436.865 13.574 A 1.062 1.062 0 0 0 436.314 13.802 Q 435.007 14.695 431.934 19.092 A 44.618 44.618 0 0 1 431.028 20.387 Q 429.166 22.943 428.174 23.34 Z"/>
  </g>
</svg>
